<svg width="240" height="85" viewBox="0 0 240 85" fill="none" xmlns="http://www.w3.org/2000/svg">
<g clip-path="url(#clip0_2069_105)">
<g clip-path="url(#clip1_2069_105)">
<path d="M46.3718 36.8181V30.391L34.4079 42.3819C34.142 42.6484 34.142 43.0785 34.4079 43.3451L45.4383 54.4061C45.5652 54.5333 45.7374 54.606 45.9186 54.606H52.3357L41.1059 43.3451C40.84 43.0785 40.84 42.6484 41.1059 42.3819L46.1694 37.2966C46.2993 37.1724 46.3718 36.9998 46.3718 36.8181Z" fill="#DBD5EB"/>
<path d="M52.7889 30.391H46.3718L57.6047 41.655C57.8705 41.9215 57.8705 42.3516 57.6047 42.6182L52.5381 47.6974C52.4112 47.8246 52.3387 47.9973 52.3387 48.179V54.606L64.3027 42.6151C64.5685 42.3486 64.5685 41.9185 64.3027 41.652L53.2723 30.5909C53.1423 30.4637 52.9701 30.391 52.7889 30.391Z" fill="#DDDDDD"/>
<path d="M73.1548 54.5091V30.394H83.2788C85.3937 30.394 87.0765 31.1209 88.3242 32.5717C89.572 34.0225 90.1944 35.9761 90.1944 38.4324C90.1944 40.8887 89.569 42.8362 88.3242 44.2779C87.0765 45.7166 85.3937 46.4375 83.2788 46.4375H76.9978V54.5091H73.1548ZM76.9978 42.918H83.1459C84.0583 42.918 84.8045 42.5788 85.3846 41.8973C85.9647 41.2159 86.2547 40.3284 86.2547 39.235V37.5934C86.2547 36.5001 85.9647 35.6066 85.3846 34.913C84.8045 34.2224 84.0583 33.8741 83.1459 33.8741H76.9978V42.918Z" fill="white"/>
<path d="M108.403 37.0906V54.2395H105.63L105.328 53.0674C105.261 52.822 105.137 52.6827 104.959 52.6494C104.781 52.6161 104.602 52.6888 104.424 52.8675C103.334 53.9608 101.895 54.5091 100.113 54.5091C98.0857 54.5091 96.5268 53.9003 95.4361 52.6827C94.3455 51.4651 93.7986 49.7296 93.7986 47.4732V37.0906H97.5419V47.3733C97.5419 49.8962 98.7232 51.1592 101.083 51.1592C102.198 51.1592 103.071 50.8685 103.705 50.29C104.34 49.7084 104.657 48.9058 104.657 47.8791V37.0936H108.403V37.0906Z" fill="white"/>
<path d="M119.195 54.5091C116.811 54.5091 115.168 54.079 114.267 53.2189C113.364 52.3587 112.914 50.8019 112.914 48.5455V30.391H116.657V48.5455C116.657 49.5722 116.829 50.2658 117.177 50.6202C117.521 50.9776 118.195 51.1563 119.198 51.1563H120.434V54.5061H119.195V54.5091Z" fill="white"/>
<path d="M129.92 54.5091C127.536 54.5091 125.893 54.079 124.993 53.2189C124.089 52.3587 123.639 50.8019 123.639 48.5455V30.391H127.382V48.5455C127.382 49.5722 127.555 50.2658 127.902 50.6202C128.246 50.9776 128.92 51.1563 129.923 51.1563H131.159V54.5061H129.92V54.5091Z" fill="white"/>
<path d="M135.231 54.5091V30.394H150.132V33.8771H139.074V40.5435H149.497V44.0599H139.074V54.5091H135.231Z" fill="white"/>
<path d="M160.087 54.5091C157.703 54.5091 156.06 54.079 155.159 53.2189C154.256 52.3587 153.806 50.8019 153.806 48.5455V30.391H157.549V48.5455C157.549 49.5722 157.721 50.2658 158.069 50.6202C158.413 50.9776 159.087 51.1563 160.09 51.1563H161.326V54.5061H160.087V54.5091Z" fill="white"/>
<path d="M171.513 54.609C169.042 54.609 167.141 53.8397 165.818 52.2981C164.492 50.7564 163.83 48.5454 163.83 45.665C163.83 42.7847 164.492 40.5737 165.818 39.032C167.141 37.4904 169.042 36.7211 171.513 36.7211C173.963 36.7211 175.851 37.4904 177.175 39.032C178.498 40.5737 179.163 42.7847 179.163 45.665C179.163 48.5454 178.498 50.7564 177.175 52.2981C175.851 53.8367 173.963 54.609 171.513 54.609ZM171.48 51.2259C172.728 51.2259 173.685 50.8291 174.353 50.0356C175.021 49.242 175.356 48.0971 175.356 46.6009V44.7261C175.356 43.2299 175.021 42.079 174.353 41.2763C173.685 40.4737 172.728 40.0709 171.48 40.0709C170.253 40.0709 169.308 40.4737 168.64 41.2763C167.972 42.079 167.637 43.2299 167.637 44.7261V46.6009C167.637 48.0759 167.972 49.2148 168.64 50.0174C169.311 50.823 170.256 51.2259 171.48 51.2259Z" fill="white"/>
<path d="M186.281 54.2395L181.87 40.4737C181.803 40.2738 181.77 40.0497 181.77 39.8044V37.0906H185.411V39.6711L188.251 48.7483L191.525 37.0936H195L198.275 48.818L201.148 39.6741V37.0936H204.789V39.8074C204.789 40.0527 204.755 40.2768 204.689 40.4767L200.311 54.2425H196.501L193.26 42.9543L190.051 54.2425H186.281V54.2395Z" fill="white"/>
</g>
</g>
<defs>
<clipPath id="clip0_2069_105">
<rect width="240" height="85" fill="white"/>
</clipPath>
<clipPath id="clip1_2069_105">
<rect width="171" height="25" fill="white" transform="translate(34 30)"/>
</clipPath>
</defs>
</svg>
