<svg width="240" height="85" viewBox="0 0 240 85" fill="none" xmlns="http://www.w3.org/2000/svg">
<path d="M89.3616 43.6146V43.2074C89.3616 42.1842 89.01 41.4012 88.3068 40.8583C87.6249 40.2945 86.73 40.0126 85.6219 40.0126C84.7695 40.0126 84.0983 40.1587 83.6082 40.4511C83.1394 40.7225 82.6919 41.1402 82.2657 41.704C82.1378 41.871 81.9993 41.9859 81.8501 42.0485C81.701 42.1112 81.4985 42.1425 81.2428 42.1425H80.2839C80.0495 42.1425 79.8365 42.0589 79.6446 41.8919C79.4742 41.7249 79.3996 41.5265 79.4209 41.2968C79.4849 40.6703 79.7938 40.0544 80.3478 39.4488C80.9232 38.8224 81.6797 38.3108 82.6173 37.914C83.5549 37.5173 84.5564 37.3189 85.6219 37.3189C87.6036 37.3189 89.2018 37.8618 90.4165 38.9476C91.6524 40.0335 92.2704 41.5578 92.2704 43.5206V53.0738C92.2704 53.3034 92.1851 53.5018 92.0146 53.6689C91.8441 53.8359 91.6417 53.9194 91.4073 53.9194H90.2247C89.9903 53.9194 89.7878 53.8359 89.6174 53.6689C89.4469 53.5018 89.3616 53.3034 89.3616 53.0738V51.7896C89.0207 52.5413 88.2962 53.1364 87.1881 53.5749C86.08 54.0134 84.9719 54.2327 83.8639 54.2327C82.7771 54.2327 81.8076 54.0448 80.9552 53.6689C80.1028 53.2721 79.4422 52.7397 78.9734 52.0714C78.5259 51.4033 78.3022 50.6516 78.3022 49.8163C78.3022 48.2502 78.8988 47.0286 80.0921 46.1517C81.2855 45.2537 82.873 44.6482 84.8547 44.335L89.3616 43.6146ZM89.3616 46.1203L85.5899 46.7155C84.2048 46.9242 83.1287 47.2688 82.3616 47.7491C81.5944 48.2084 81.2109 48.7931 81.2109 49.5031C81.2109 50.0251 81.456 50.4949 81.946 50.9125C82.4362 51.3302 83.182 51.539 84.1835 51.539C85.7178 51.539 86.9644 51.1109 87.9232 50.2548C88.8822 49.3987 89.3616 48.2815 89.3616 46.9033V46.1203Z" fill="#0C0C0E"/>
<path d="M99.8426 53.0738C99.8426 53.3035 99.7571 53.5018 99.5867 53.6689C99.4162 53.8359 99.2142 53.9195 98.9793 53.9195H97.7967C97.5625 53.9195 97.3598 53.8359 97.1894 53.6689C97.0189 53.5018 96.934 53.3035 96.934 53.0738V32.5267C96.934 32.297 97.0189 32.0986 97.1894 31.9316C97.3598 31.7645 97.5625 31.681 97.7967 31.681H98.9793C99.2142 31.681 99.4162 31.7645 99.5867 31.9316C99.7571 32.0986 99.8426 32.297 99.8426 32.5267V53.0738Z" fill="#0C0C0E"/>
<path d="M111.356 51.539C113.487 51.539 114.925 50.7246 115.672 49.0959C115.82 48.7827 115.97 48.5635 116.119 48.4382C116.268 48.3129 116.47 48.2502 116.726 48.2502H117.685C117.92 48.2502 118.122 48.3337 118.292 48.5008C118.463 48.6469 118.548 48.8244 118.548 49.0333C118.548 49.7432 118.26 50.5054 117.685 51.3198C117.109 52.1341 116.278 52.8232 115.192 53.387C114.105 53.9508 112.827 54.2327 111.356 54.2327C109.843 54.2327 108.533 53.9195 107.425 53.293C106.317 52.6666 105.464 51.8105 104.867 50.7246C104.271 49.6179 103.941 48.386 103.876 47.0287C103.855 46.7781 103.845 46.2978 103.845 45.5879C103.845 45.0867 103.855 44.7317 103.876 44.5229C104.069 42.393 104.804 40.6599 106.082 39.3235C107.361 37.9871 109.119 37.3189 111.356 37.3189C112.827 37.3189 114.094 37.6008 115.16 38.1646C116.247 38.7075 117.067 39.3862 117.621 40.2005C118.197 40.994 118.505 41.7457 118.548 42.4557C118.569 42.6854 118.484 42.8838 118.292 43.0508C118.122 43.2178 117.92 43.3014 117.685 43.3014H116.726C116.47 43.3014 116.268 43.2387 116.119 43.1134C115.97 42.9881 115.82 42.7689 115.672 42.4557C114.925 40.8269 113.487 40.0126 111.356 40.0126C110.184 40.0126 109.161 40.3989 108.287 41.1715C107.414 41.9441 106.913 43.1134 106.785 44.6795C106.764 44.9092 106.753 45.2851 106.753 45.8071C106.753 46.2874 106.764 46.6424 106.785 46.8721C106.934 48.4382 107.435 49.6075 108.287 50.3801C109.161 51.1527 110.184 51.539 111.356 51.539Z" fill="#0C0C0E"/>
<path d="M137.141 53.0738C137.141 53.3035 137.056 53.5018 136.885 53.6689C136.715 53.8359 136.512 53.9195 136.278 53.9195H135.095C134.861 53.9195 134.659 53.8359 134.488 53.6689C134.317 53.5018 134.232 53.3035 134.232 53.0738V44.8048C134.232 43.2387 133.838 42.0485 133.05 41.2341C132.261 40.4198 131.164 40.0126 129.757 40.0126C128.372 40.0126 127.275 40.4198 126.465 41.2341C125.677 42.0485 125.283 43.2387 125.283 44.8048V53.0738C125.283 53.3035 125.197 53.5018 125.027 53.6689C124.856 53.8359 124.653 53.9195 124.419 53.9195H123.237C123.002 53.9195 122.8 53.8359 122.629 53.6689C122.459 53.5018 122.374 53.3035 122.374 53.0738V32.5267C122.374 32.297 122.459 32.0986 122.629 31.9316C122.8 31.7645 123.002 31.681 123.237 31.681H124.419C124.653 31.681 124.856 31.7645 125.027 31.9316C125.197 32.0986 125.283 32.297 125.283 32.5267V39.4488C125.751 38.8433 126.391 38.3421 127.2 37.9453C128.031 37.5277 129.043 37.3189 130.237 37.3189C131.579 37.3189 132.773 37.6008 133.817 38.1646C134.861 38.7284 135.671 39.5427 136.246 40.6077C136.843 41.6518 137.141 42.8942 137.141 44.335V53.0738Z" fill="#0C0C0E"/>
<path d="M148.342 37.3189C150.622 37.3189 152.422 38.0289 153.744 39.4488C155.065 40.8687 155.726 42.8002 155.726 45.2433V46.089C155.726 46.3187 155.64 46.5171 155.47 46.6841C155.299 46.8512 155.097 46.9347 154.862 46.9347H143.867V47.1226C143.909 48.5008 144.336 49.5866 145.145 50.3801C145.976 51.1527 147.042 51.539 148.342 51.539C149.407 51.539 150.228 51.4033 150.803 51.1318C151.4 50.8603 151.933 50.474 152.401 49.9729C152.572 49.8058 152.721 49.691 152.849 49.6284C152.998 49.5657 153.19 49.5344 153.424 49.5344H154.383C154.639 49.5344 154.852 49.6179 155.022 49.785C155.193 49.952 155.267 50.1504 155.246 50.3801C155.16 50.9439 154.841 51.5285 154.287 52.1341C153.754 52.7188 152.976 53.2199 151.954 53.6376C150.952 54.0343 149.748 54.2327 148.342 54.2327C146.978 54.2327 145.763 53.9299 144.698 53.3243C143.632 52.6979 142.78 51.8418 142.141 50.756C141.523 49.6702 141.15 48.4486 141.022 47.0913C140.98 46.4649 140.958 45.9846 140.958 45.6505C140.958 45.3164 140.98 44.8361 141.022 44.2097C141.15 42.915 141.523 41.7458 142.141 40.7016C142.78 39.6576 143.622 38.8328 144.666 38.2273C145.732 37.6217 146.957 37.3189 148.342 37.3189ZM152.849 44.3037V44.2097C152.849 42.9359 152.433 41.9232 151.602 41.1715C150.792 40.3989 149.706 40.0126 148.342 40.0126C147.106 40.0126 146.051 40.3989 145.178 41.1715C144.325 41.9441 143.888 42.9568 143.867 44.2097V44.3037H152.849Z" fill="#0C0C0E"/>
<path d="M162.49 39.4488C163.001 38.8015 163.577 38.2899 164.216 37.914C164.856 37.5173 165.708 37.3189 166.773 37.3189C169.267 37.3189 171.014 38.2273 172.016 40.0439C172.633 39.1669 173.336 38.4987 174.125 38.0393C174.914 37.5591 175.947 37.3189 177.225 37.3189C179.314 37.3189 180.859 37.9349 181.86 39.1669C182.883 40.3989 183.395 42.1425 183.395 44.3976V53.0738C183.395 53.3034 183.309 53.5018 183.139 53.6689C182.968 53.8359 182.766 53.9194 182.531 53.9194H181.349C181.115 53.9194 180.912 53.8359 180.742 53.6689C180.571 53.5018 180.486 53.3034 180.486 53.0738V44.7108C180.486 41.5787 179.229 40.0126 176.714 40.0126C175.563 40.0126 174.647 40.3885 173.965 41.1402C173.283 41.8919 172.942 43.009 172.942 44.4916V53.0738C172.942 53.3034 172.857 53.5018 172.687 53.6689C172.516 53.8359 172.314 53.9194 172.079 53.9194H170.897C170.663 53.9194 170.46 53.8359 170.289 53.6689C170.119 53.5018 170.033 53.3034 170.033 53.0738V44.7108C170.033 41.5787 168.777 40.0126 166.262 40.0126C165.111 40.0126 164.195 40.3885 163.513 41.1402C162.831 41.8919 162.49 43.009 162.49 44.4916V53.0738C162.49 53.3034 162.405 53.5018 162.235 53.6689C162.064 53.8359 161.862 53.9194 161.627 53.9194H160.445C160.21 53.9194 160.008 53.8359 159.837 53.6689C159.667 53.5018 159.581 53.3034 159.581 53.0738V38.4778C159.581 38.2481 159.667 38.0498 159.837 37.8827C160.008 37.7157 160.21 37.6321 160.445 37.6321H161.627C161.862 37.6321 162.064 37.7157 162.235 37.8827C162.405 38.0498 162.49 38.2481 162.49 38.4778V39.4488Z" fill="#0C0C0E"/>
<path d="M192.347 59.1189C192.155 59.62 191.846 59.8706 191.42 59.8706H190.109C189.896 59.8706 189.715 59.7975 189.566 59.6513C189.417 59.5052 189.342 59.3277 189.342 59.1189C189.342 59.0353 189.353 58.9623 189.374 58.8996L192.442 52.3534L186.114 38.6031C186.093 38.5404 186.081 38.4674 186.081 38.3838C186.081 38.1751 186.156 37.9975 186.305 37.8514C186.455 37.7052 186.636 37.6321 186.849 37.6321H188.16C188.585 37.6321 188.895 37.8827 189.086 38.3838L194.009 49.0333L198.995 38.3838C199.187 37.8827 199.496 37.6321 199.922 37.6321H201.233C201.446 37.6321 201.627 37.7052 201.776 37.8514C201.925 37.9975 201.999 38.1751 201.999 38.3838C201.999 38.4674 201.989 38.5404 201.968 38.6031L192.347 59.1189Z" fill="#0C0C0E"/>
<path d="M66.2163 43.5576L55.4835 25.4266C55.4316 25.3371 55.3563 25.2625 55.2653 25.2104C55.1744 25.1583 55.0709 25.1306 54.9654 25.1299C54.86 25.1292 54.7562 25.1557 54.6646 25.2067C54.573 25.2576 54.4968 25.3313 54.4436 25.4202L51.2292 30.853C51.124 31.0308 51.0686 31.2326 51.0686 31.4379C51.0686 31.6432 51.124 31.845 51.2292 32.0228L58.2277 43.8509C58.3331 44.0289 58.4847 44.1767 58.6673 44.2794C58.8498 44.3821 59.0569 44.4361 59.2676 44.4358H65.6964C65.8016 44.4356 65.905 44.4083 65.996 44.3569C66.0871 44.3054 66.1627 44.2315 66.2153 44.1426C66.268 44.0538 66.2957 43.9529 66.2959 43.8503C66.2961 43.7476 66.2686 43.6467 66.2163 43.5576Z" fill="#393939"/>
<path d="M38.0828 53.0336L48.8156 34.9026C48.8682 34.8138 48.944 34.74 49.0351 34.6888C49.1262 34.6375 49.2295 34.6105 49.3347 34.6105C49.4399 34.6105 49.5433 34.6375 49.6343 34.6888C49.7255 34.74 49.8011 34.8138 49.8538 34.9026L53.0698 40.3305C53.1751 40.5087 53.2305 40.7107 53.2305 40.9163C53.2305 41.1219 53.1751 41.3239 53.0698 41.502L46.0713 53.3301C45.9664 53.5081 45.8151 53.656 45.6328 53.7586C45.4505 53.8614 45.2436 53.9153 45.0331 53.915H38.6027C38.4968 53.9155 38.3926 53.8887 38.3008 53.8372C38.2089 53.7857 38.1327 53.7114 38.0799 53.6218C38.0271 53.5323 37.9995 53.4307 38 53.3274C38.0005 53.224 38.0291 53.1227 38.0828 53.0336Z" fill="#393939"/>
<path d="M49.8523 53.9112H71.3179C71.4232 53.9111 71.5266 53.8839 71.6178 53.8325C71.7089 53.781 71.7845 53.7071 71.8371 53.618C71.8896 53.529 71.9172 53.4281 71.9171 53.3254C71.9169 53.2227 71.889 53.1218 71.8362 53.033L68.6252 47.6018C68.5198 47.4237 68.3682 47.2759 68.1857 47.1733C68.0031 47.0706 67.796 47.0166 67.5852 47.0168H53.5883C53.3775 47.0166 53.1705 47.0706 52.9879 47.1733C52.8053 47.2759 52.6538 47.4237 52.5484 47.6018L49.334 53.033C49.2812 53.1218 49.2533 53.2227 49.2532 53.3254C49.253 53.4281 49.2806 53.529 49.3331 53.618C49.3856 53.7071 49.4613 53.781 49.5525 53.8325C49.6436 53.8839 49.747 53.9111 49.8523 53.9112Z" fill="#393939"/>
</svg>
